<mxfile host="app.diagrams.net" modified="2021-07-01T12:59:21.388Z" agent="5.0 (Windows NT 10.0; WOW64) AppleWebKit/537.36 (KHTML, like Gecko) Chrome/91.0.4472.124 Safari/537.36" etag="ck-gfbAINCufwC2n1hOx" version="14.8.2" type="github">
  <diagram id="CpPknlnmQG9yu93PD4Yi" name="Page-1">
    <mxGraphModel dx="1108" dy="482" grid="1" gridSize="10" guides="1" tooltips="1" connect="1" arrows="1" fold="1" page="1" pageScale="1" pageWidth="850" pageHeight="1100" math="0" shadow="0">
      <root>
        <mxCell id="0" />
        <mxCell id="1" parent="0" />
        <mxCell id="Zu5Im3NmMzO6Eq4P25F9-1" value="GIT HUB" style="rounded=1;whiteSpace=wrap;html=1;" vertex="1" parent="1">
          <mxGeometry x="80" y="190" width="140" height="70" as="geometry" />
        </mxCell>
        <mxCell id="Zu5Im3NmMzO6Eq4P25F9-2" value="&lt;br&gt;workstation 1&lt;br&gt;git&lt;br&gt;" style="rounded=1;whiteSpace=wrap;html=1;" vertex="1" parent="1">
          <mxGeometry x="90" y="370" width="120" height="60" as="geometry" />
        </mxCell>
        <mxCell id="Zu5Im3NmMzO6Eq4P25F9-3" value="workstation 2" style="rounded=1;whiteSpace=wrap;html=1;" vertex="1" parent="1">
          <mxGeometry x="320" y="370" width="120" height="60" as="geometry" />
        </mxCell>
        <mxCell id="Zu5Im3NmMzO6Eq4P25F9-4" value="workstation 3" style="rounded=1;whiteSpace=wrap;html=1;" vertex="1" parent="1">
          <mxGeometry x="550" y="380" width="120" height="60" as="geometry" />
        </mxCell>
        <mxCell id="Zu5Im3NmMzO6Eq4P25F9-6" value="" style="endArrow=classic;html=1;entryX=0.5;entryY=1;entryDx=0;entryDy=0;exitX=0.333;exitY=-0.067;exitDx=0;exitDy=0;exitPerimeter=0;" edge="1" parent="1" source="Zu5Im3NmMzO6Eq4P25F9-2" target="Zu5Im3NmMzO6Eq4P25F9-1">
          <mxGeometry width="50" height="50" relative="1" as="geometry">
            <mxPoint x="130" y="360" as="sourcePoint" />
            <mxPoint x="180" y="310" as="targetPoint" />
          </mxGeometry>
        </mxCell>
        <mxCell id="Zu5Im3NmMzO6Eq4P25F9-7" value="" style="endArrow=classic;html=1;entryX=0.614;entryY=1.014;entryDx=0;entryDy=0;entryPerimeter=0;exitX=0.142;exitY=0.017;exitDx=0;exitDy=0;exitPerimeter=0;" edge="1" parent="1" source="Zu5Im3NmMzO6Eq4P25F9-3" target="Zu5Im3NmMzO6Eq4P25F9-1">
          <mxGeometry width="50" height="50" relative="1" as="geometry">
            <mxPoint x="250" y="370" as="sourcePoint" />
            <mxPoint x="300" y="320" as="targetPoint" />
          </mxGeometry>
        </mxCell>
        <mxCell id="Zu5Im3NmMzO6Eq4P25F9-8" value="" style="endArrow=classic;html=1;entryX=0.55;entryY=1.086;entryDx=0;entryDy=0;entryPerimeter=0;exitX=0.058;exitY=-0.05;exitDx=0;exitDy=0;exitPerimeter=0;" edge="1" parent="1" source="Zu5Im3NmMzO6Eq4P25F9-4">
          <mxGeometry width="50" height="50" relative="1" as="geometry">
            <mxPoint x="390.03999999999996" y="365" as="sourcePoint" />
            <mxPoint x="210" y="260" as="targetPoint" />
          </mxGeometry>
        </mxCell>
        <mxCell id="Zu5Im3NmMzO6Eq4P25F9-9" value="git&lt;br&gt;git clone&lt;br&gt;maven install&lt;br&gt;java install&lt;br&gt;maven package" style="rounded=0;whiteSpace=wrap;html=1;" vertex="1" parent="1">
          <mxGeometry x="700" y="280" width="130" height="80" as="geometry" />
        </mxCell>
        <mxCell id="Zu5Im3NmMzO6Eq4P25F9-10" value="" style="endArrow=classic;html=1;exitX=1;exitY=0.5;exitDx=0;exitDy=0;entryX=0;entryY=0.5;entryDx=0;entryDy=0;" edge="1" parent="1" source="Zu5Im3NmMzO6Eq4P25F9-1" target="Zu5Im3NmMzO6Eq4P25F9-9">
          <mxGeometry width="50" height="50" relative="1" as="geometry">
            <mxPoint x="230" y="250" as="sourcePoint" />
            <mxPoint x="280" y="200" as="targetPoint" />
          </mxGeometry>
        </mxCell>
        <mxCell id="Zu5Im3NmMzO6Eq4P25F9-11" value="JENKINS SERVER" style="rounded=1;whiteSpace=wrap;html=1;" vertex="1" parent="1">
          <mxGeometry x="705" y="120" width="120" height="60" as="geometry" />
        </mxCell>
        <mxCell id="Zu5Im3NmMzO6Eq4P25F9-12" value="GIT HUB" style="rounded=1;whiteSpace=wrap;html=1;" vertex="1" parent="1">
          <mxGeometry x="340" y="20" width="120" height="60" as="geometry" />
        </mxCell>
        <mxCell id="Zu5Im3NmMzO6Eq4P25F9-13" value="LOCAL PC&amp;nbsp;" style="rounded=1;whiteSpace=wrap;html=1;" vertex="1" parent="1">
          <mxGeometry x="340" y="140" width="120" height="60" as="geometry" />
        </mxCell>
        <mxCell id="Zu5Im3NmMzO6Eq4P25F9-14" value="" style="endArrow=classic;html=1;exitX=1;exitY=0.5;exitDx=0;exitDy=0;" edge="1" parent="1" source="Zu5Im3NmMzO6Eq4P25F9-12">
          <mxGeometry width="50" height="50" relative="1" as="geometry">
            <mxPoint x="490" y="80" as="sourcePoint" />
            <mxPoint x="700" y="120" as="targetPoint" />
          </mxGeometry>
        </mxCell>
        <mxCell id="Zu5Im3NmMzO6Eq4P25F9-15" value="" style="endArrow=classic;html=1;exitX=1;exitY=0.75;exitDx=0;exitDy=0;" edge="1" parent="1" source="Zu5Im3NmMzO6Eq4P25F9-13">
          <mxGeometry width="50" height="50" relative="1" as="geometry">
            <mxPoint x="460" y="230" as="sourcePoint" />
            <mxPoint x="700" y="150" as="targetPoint" />
          </mxGeometry>
        </mxCell>
        <mxCell id="Zu5Im3NmMzO6Eq4P25F9-16" value="take code from git" style="text;html=1;strokeColor=none;fillColor=none;align=center;verticalAlign=middle;whiteSpace=wrap;rounded=0;" vertex="1" parent="1">
          <mxGeometry x="550" y="50" width="120" height="20" as="geometry" />
        </mxCell>
        <mxCell id="Zu5Im3NmMzO6Eq4P25F9-17" value="git url" style="text;html=1;strokeColor=none;fillColor=none;align=center;verticalAlign=middle;whiteSpace=wrap;rounded=0;" vertex="1" parent="1">
          <mxGeometry x="745" y="90" width="40" height="20" as="geometry" />
        </mxCell>
        <mxCell id="Zu5Im3NmMzO6Eq4P25F9-19" style="edgeStyle=orthogonalEdgeStyle;rounded=0;orthogonalLoop=1;jettySize=auto;html=1;" edge="1" parent="1" source="Zu5Im3NmMzO6Eq4P25F9-18">
          <mxGeometry relative="1" as="geometry">
            <mxPoint x="830" y="210" as="targetPoint" />
          </mxGeometry>
        </mxCell>
        <mxCell id="Zu5Im3NmMzO6Eq4P25F9-18" value="maven path" style="text;html=1;strokeColor=none;fillColor=none;align=center;verticalAlign=middle;whiteSpace=wrap;rounded=0;" vertex="1" parent="1">
          <mxGeometry x="740" y="190" width="70" height="20" as="geometry" />
        </mxCell>
        <mxCell id="Zu5Im3NmMzO6Eq4P25F9-20" value="Actor" style="shape=umlActor;verticalLabelPosition=bottom;verticalAlign=top;html=1;outlineConnect=0;" vertex="1" parent="1">
          <mxGeometry x="30" y="70" width="30" height="60" as="geometry" />
        </mxCell>
        <mxCell id="Zu5Im3NmMzO6Eq4P25F9-21" value="" style="endArrow=classic;html=1;exitX=1;exitY=0.3333333333333333;exitDx=0;exitDy=0;exitPerimeter=0;entryX=0;entryY=0.333;entryDx=0;entryDy=0;entryPerimeter=0;" edge="1" parent="1" source="Zu5Im3NmMzO6Eq4P25F9-20" target="Zu5Im3NmMzO6Eq4P25F9-12">
          <mxGeometry width="50" height="50" relative="1" as="geometry">
            <mxPoint x="70" y="130" as="sourcePoint" />
            <mxPoint x="120" y="80" as="targetPoint" />
          </mxGeometry>
        </mxCell>
      </root>
    </mxGraphModel>
  </diagram>
</mxfile>
